<mxfile host="app.diagrams.net" modified="2024-07-04T07:19:33.296Z" agent="Mozilla/5.0 (Macintosh; Intel Mac OS X 10_15_7) AppleWebKit/537.36 (KHTML, like Gecko) Chrome/126.0.0.0 Safari/537.36" etag="QuQtsNJSZmiD1uzM24Ep" version="24.6.4" type="github">
  <diagram name="第 1 页" id="DmxYfSHrtoK1bnmDY7Ps">
    <mxGraphModel dx="615" dy="375" grid="1" gridSize="10" guides="1" tooltips="1" connect="1" arrows="1" fold="1" page="1" pageScale="1" pageWidth="827" pageHeight="1169" math="0" shadow="0">
      <root>
        <mxCell id="0" />
        <mxCell id="1" parent="0" />
        <mxCell id="csMQGs7tXT2If-eY257M-13" value="" style="edgeStyle=orthogonalEdgeStyle;rounded=0;orthogonalLoop=1;jettySize=auto;html=1;endArrow=none;endFill=0;" edge="1" parent="1" source="csMQGs7tXT2If-eY257M-1" target="csMQGs7tXT2If-eY257M-7">
          <mxGeometry relative="1" as="geometry" />
        </mxCell>
        <mxCell id="csMQGs7tXT2If-eY257M-1" value="&lt;font style=&quot;font-size: 18px;&quot;&gt;物理架构设计体系&lt;/font&gt;" style="rounded=0;whiteSpace=wrap;html=1;" vertex="1" parent="1">
          <mxGeometry x="334" y="100" width="216" height="40" as="geometry" />
        </mxCell>
        <mxCell id="csMQGs7tXT2If-eY257M-12" value="" style="group" vertex="1" connectable="0" parent="1">
          <mxGeometry x="160" y="200" width="510" height="130" as="geometry" />
        </mxCell>
        <mxCell id="csMQGs7tXT2If-eY257M-2" value="&lt;font style=&quot;font-size: 16px;&quot;&gt;概述&lt;/font&gt;" style="rounded=0;whiteSpace=wrap;html=1;" vertex="1" parent="csMQGs7tXT2If-eY257M-12">
          <mxGeometry x="60" width="30" height="130" as="geometry" />
        </mxCell>
        <mxCell id="csMQGs7tXT2If-eY257M-3" value="&lt;font style=&quot;font-size: 16px;&quot;&gt;部署方案&lt;/font&gt;" style="rounded=0;whiteSpace=wrap;html=1;" vertex="1" parent="csMQGs7tXT2If-eY257M-12">
          <mxGeometry x="120" width="30" height="130" as="geometry" />
        </mxCell>
        <mxCell id="csMQGs7tXT2If-eY257M-4" value="&lt;font style=&quot;font-size: 16px;&quot;&gt;硬件架构&lt;/font&gt;" style="rounded=0;whiteSpace=wrap;html=1;" vertex="1" parent="csMQGs7tXT2If-eY257M-12">
          <mxGeometry x="180" width="30" height="130" as="geometry" />
        </mxCell>
        <mxCell id="csMQGs7tXT2If-eY257M-7" value="&lt;font style=&quot;font-size: 16px;&quot;&gt;网络架构&lt;/font&gt;" style="rounded=0;whiteSpace=wrap;html=1;" vertex="1" parent="csMQGs7tXT2If-eY257M-12">
          <mxGeometry x="239" width="30" height="130" as="geometry" />
        </mxCell>
        <mxCell id="csMQGs7tXT2If-eY257M-8" value="&lt;font style=&quot;font-size: 16px;&quot;&gt;系统性能&lt;/font&gt;" style="rounded=0;whiteSpace=wrap;html=1;" vertex="1" parent="csMQGs7tXT2If-eY257M-12">
          <mxGeometry x="300" width="30" height="130" as="geometry" />
        </mxCell>
        <mxCell id="csMQGs7tXT2If-eY257M-9" value="&lt;font style=&quot;font-size: 16px;&quot;&gt;安全性考虑&lt;/font&gt;" style="rounded=0;whiteSpace=wrap;html=1;" vertex="1" parent="csMQGs7tXT2If-eY257M-12">
          <mxGeometry x="360" width="30" height="130" as="geometry" />
        </mxCell>
        <mxCell id="csMQGs7tXT2If-eY257M-10" value="&lt;font style=&quot;font-size: 16px;&quot;&gt;备份与恢复&lt;/font&gt;" style="rounded=0;whiteSpace=wrap;html=1;" vertex="1" parent="csMQGs7tXT2If-eY257M-12">
          <mxGeometry x="420" width="30" height="130" as="geometry" />
        </mxCell>
        <mxCell id="csMQGs7tXT2If-eY257M-11" value="&lt;font style=&quot;font-size: 16px;&quot;&gt;环境适应性&lt;/font&gt;" style="rounded=0;whiteSpace=wrap;html=1;" vertex="1" parent="csMQGs7tXT2If-eY257M-12">
          <mxGeometry x="480" width="30" height="130" as="geometry" />
        </mxCell>
        <mxCell id="csMQGs7tXT2If-eY257M-14" value="" style="edgeStyle=orthogonalEdgeStyle;rounded=0;orthogonalLoop=1;jettySize=auto;html=1;endArrow=none;endFill=0;entryX=0.5;entryY=0;entryDx=0;entryDy=0;exitX=0.5;exitY=1;exitDx=0;exitDy=0;" edge="1" parent="1" source="csMQGs7tXT2If-eY257M-1" target="csMQGs7tXT2If-eY257M-11">
          <mxGeometry relative="1" as="geometry">
            <mxPoint x="424" y="150" as="sourcePoint" />
            <mxPoint x="424" y="210" as="targetPoint" />
          </mxGeometry>
        </mxCell>
        <mxCell id="csMQGs7tXT2If-eY257M-15" value="" style="edgeStyle=orthogonalEdgeStyle;rounded=0;orthogonalLoop=1;jettySize=auto;html=1;endArrow=none;endFill=0;entryX=0.502;entryY=-0.036;entryDx=0;entryDy=0;entryPerimeter=0;exitX=0.5;exitY=1;exitDx=0;exitDy=0;" edge="1" parent="1" source="csMQGs7tXT2If-eY257M-1" target="csMQGs7tXT2If-eY257M-2">
          <mxGeometry relative="1" as="geometry">
            <mxPoint x="434" y="160" as="sourcePoint" />
            <mxPoint x="434" y="220" as="targetPoint" />
          </mxGeometry>
        </mxCell>
        <mxCell id="csMQGs7tXT2If-eY257M-16" value="" style="edgeStyle=orthogonalEdgeStyle;rounded=0;orthogonalLoop=1;jettySize=auto;html=1;endArrow=none;endFill=0;exitX=0.5;exitY=1;exitDx=0;exitDy=0;entryX=0.5;entryY=0;entryDx=0;entryDy=0;" edge="1" parent="1" source="csMQGs7tXT2If-eY257M-1" target="csMQGs7tXT2If-eY257M-10">
          <mxGeometry relative="1" as="geometry">
            <mxPoint x="444" y="170" as="sourcePoint" />
            <mxPoint x="444" y="230" as="targetPoint" />
          </mxGeometry>
        </mxCell>
        <mxCell id="csMQGs7tXT2If-eY257M-17" value="" style="edgeStyle=orthogonalEdgeStyle;rounded=0;orthogonalLoop=1;jettySize=auto;html=1;endArrow=none;endFill=0;entryX=0.5;entryY=0;entryDx=0;entryDy=0;exitX=0.5;exitY=1;exitDx=0;exitDy=0;" edge="1" parent="1" source="csMQGs7tXT2If-eY257M-1" target="csMQGs7tXT2If-eY257M-9">
          <mxGeometry relative="1" as="geometry">
            <mxPoint x="454" y="180" as="sourcePoint" />
            <mxPoint x="454" y="240" as="targetPoint" />
          </mxGeometry>
        </mxCell>
        <mxCell id="csMQGs7tXT2If-eY257M-18" value="" style="edgeStyle=orthogonalEdgeStyle;rounded=0;orthogonalLoop=1;jettySize=auto;html=1;endArrow=none;endFill=0;exitX=0.5;exitY=1;exitDx=0;exitDy=0;entryX=0.5;entryY=0;entryDx=0;entryDy=0;" edge="1" parent="1" source="csMQGs7tXT2If-eY257M-1" target="csMQGs7tXT2If-eY257M-8">
          <mxGeometry relative="1" as="geometry">
            <mxPoint x="464" y="190" as="sourcePoint" />
            <mxPoint x="464" y="250" as="targetPoint" />
          </mxGeometry>
        </mxCell>
        <mxCell id="csMQGs7tXT2If-eY257M-19" value="" style="edgeStyle=orthogonalEdgeStyle;rounded=0;orthogonalLoop=1;jettySize=auto;html=1;endArrow=none;endFill=0;exitX=0.5;exitY=1;exitDx=0;exitDy=0;entryX=0.5;entryY=0;entryDx=0;entryDy=0;" edge="1" parent="1" source="csMQGs7tXT2If-eY257M-1" target="csMQGs7tXT2If-eY257M-3">
          <mxGeometry relative="1" as="geometry">
            <mxPoint x="474" y="200" as="sourcePoint" />
            <mxPoint x="474" y="260" as="targetPoint" />
          </mxGeometry>
        </mxCell>
        <mxCell id="csMQGs7tXT2If-eY257M-20" value="" style="edgeStyle=orthogonalEdgeStyle;rounded=0;orthogonalLoop=1;jettySize=auto;html=1;endArrow=none;endFill=0;exitX=0.5;exitY=1;exitDx=0;exitDy=0;entryX=0.5;entryY=0;entryDx=0;entryDy=0;" edge="1" parent="1" source="csMQGs7tXT2If-eY257M-1" target="csMQGs7tXT2If-eY257M-4">
          <mxGeometry relative="1" as="geometry">
            <mxPoint x="484" y="210" as="sourcePoint" />
            <mxPoint x="484" y="270" as="targetPoint" />
          </mxGeometry>
        </mxCell>
      </root>
    </mxGraphModel>
  </diagram>
</mxfile>
